<mxfile host="65bd71144e" modified="2020-10-28T07:34:29.432Z" agent="5.0 (Windows NT 10.0; Win64; x64) AppleWebKit/537.36 (KHTML, like Gecko) Code/1.50.1 Chrome/83.0.4103.122 Electron/9.2.1 Safari/537.36" version="13.6.5" etag="gu6BCDAvYtrLClRlU8kg">
    <diagram id="55KbbmSa_H77qCv1PAjs" name="Page-1">
        <mxGraphModel dx="1923" dy="832" grid="1" gridSize="10" guides="1" tooltips="1" connect="1" arrows="1" fold="1" page="1" pageScale="1" pageWidth="850" pageHeight="1100" math="0" shadow="0">
            <root>
                <mxCell id="0"/>
                <mxCell id="1" parent="0"/>
                <mxCell id="2" value="Actor" style="shape=umlActor;verticalLabelPosition=bottom;verticalAlign=top;html=1;outlineConnect=0;" vertex="1" parent="1">
                    <mxGeometry x="40" y="340" width="30" height="60" as="geometry"/>
                </mxCell>
                <mxCell id="3" value="" style="rounded=0;whiteSpace=wrap;html=1;" vertex="1" parent="1">
                    <mxGeometry x="130" y="130" width="230" height="550" as="geometry"/>
                </mxCell>
                <mxCell id="4" value="&lt;h1&gt;Frontend&lt;/h1&gt;&lt;p&gt;Some examples of client that can consume backend-api&lt;/p&gt;" style="text;html=1;strokeColor=none;fillColor=none;spacing=5;spacingTop=-20;whiteSpace=wrap;overflow=hidden;rounded=0;" vertex="1" parent="1">
                    <mxGeometry x="150" y="130" width="200" height="90" as="geometry"/>
                </mxCell>
                <mxCell id="5" value="" style="rounded=0;whiteSpace=wrap;html=1;" vertex="1" parent="1">
                    <mxGeometry x="540" y="40" width="490" height="800" as="geometry"/>
                </mxCell>
                <mxCell id="6" value="&lt;h1&gt;Backend-api&lt;/h1&gt;&lt;p&gt;Lorem ipsum dolor sit amet, consectetur adipisicing elit, sed do eiusmod tempor incididunt ut labore et dolore magna aliqua.&lt;/p&gt;" style="text;html=1;strokeColor=none;fillColor=none;spacing=5;spacingTop=-20;whiteSpace=wrap;overflow=hidden;rounded=0;" vertex="1" parent="1">
                    <mxGeometry x="560" y="50" width="460" height="120" as="geometry"/>
                </mxCell>
                <mxCell id="7" value="" style="rounded=0;whiteSpace=wrap;html=1;" vertex="1" parent="1">
                    <mxGeometry x="1560" y="110" width="370" height="640" as="geometry"/>
                </mxCell>
                <mxCell id="8" value="&lt;h1&gt;Storage&lt;/h1&gt;&lt;p&gt;Some examples of storage who can be used with bachend-api&lt;/p&gt;" style="text;html=1;strokeColor=none;fillColor=none;spacing=5;spacingTop=-20;whiteSpace=wrap;overflow=hidden;rounded=0;" vertex="1" parent="1">
                    <mxGeometry x="1580" y="135" width="330" height="90" as="geometry"/>
                </mxCell>
                <mxCell id="9" value="Simple call REST" style="rounded=1;whiteSpace=wrap;html=1;" vertex="1" parent="1">
                    <mxGeometry x="190" y="240" width="120" height="60" as="geometry"/>
                </mxCell>
                <mxCell id="10" value="client javascript (ex:. react, angular)" style="rounded=1;whiteSpace=wrap;html=1;" vertex="1" parent="1">
                    <mxGeometry x="190" y="330" width="120" height="60" as="geometry"/>
                </mxCell>
                <mxCell id="11" value="client app (ex:. windows form)" style="rounded=1;whiteSpace=wrap;html=1;" vertex="1" parent="1">
                    <mxGeometry x="190" y="420" width="120" height="60" as="geometry"/>
                </mxCell>
                <mxCell id="12" value="client mobile (ex:. Xamarin, Android)" style="rounded=1;whiteSpace=wrap;html=1;" vertex="1" parent="1">
                    <mxGeometry x="190" y="520" width="120" height="60" as="geometry"/>
                </mxCell>
                <mxCell id="13" value="LOGIN" style="rounded=1;whiteSpace=wrap;html=1;" vertex="1" parent="1">
                    <mxGeometry x="610" y="150" width="120" height="60" as="geometry"/>
                </mxCell>
                <mxCell id="14" value="" style="endArrow=classic;html=1;exitX=1.013;exitY=0.133;exitDx=0;exitDy=0;exitPerimeter=0;entryX=0;entryY=0.25;entryDx=0;entryDy=0;" edge="1" parent="1" source="3" target="13">
                    <mxGeometry width="50" height="50" relative="1" as="geometry">
                        <mxPoint x="540" y="440" as="sourcePoint"/>
                        <mxPoint x="590" y="390" as="targetPoint"/>
                    </mxGeometry>
                </mxCell>
                <mxCell id="15" value="send auth" style="edgeLabel;html=1;align=center;verticalAlign=middle;resizable=0;points=[];" vertex="1" connectable="0" parent="14">
                    <mxGeometry x="-0.2709" y="1" relative="1" as="geometry">
                        <mxPoint as="offset"/>
                    </mxGeometry>
                </mxCell>
                <mxCell id="16" value="" style="endArrow=classic;html=1;exitX=0;exitY=0.5;exitDx=0;exitDy=0;entryX=1.004;entryY=0.198;entryDx=0;entryDy=0;entryPerimeter=0;" edge="1" parent="1" source="13" target="3">
                    <mxGeometry width="50" height="50" relative="1" as="geometry">
                        <mxPoint x="540" y="440" as="sourcePoint"/>
                        <mxPoint x="590" y="390" as="targetPoint"/>
                    </mxGeometry>
                </mxCell>
                <mxCell id="17" value="bearer token" style="edgeLabel;html=1;align=center;verticalAlign=middle;resizable=0;points=[];" vertex="1" connectable="0" parent="16">
                    <mxGeometry x="0.4596" y="-1" relative="1" as="geometry">
                        <mxPoint as="offset"/>
                    </mxGeometry>
                </mxCell>
                <mxCell id="18" value="List of users" style="rounded=1;whiteSpace=wrap;html=1;" vertex="1" parent="1">
                    <mxGeometry x="730" y="230" width="120" height="60" as="geometry"/>
                </mxCell>
                <mxCell id="19" value="" style="endArrow=classic;html=1;exitX=1.013;exitY=0.287;exitDx=0;exitDy=0;exitPerimeter=0;entryX=0;entryY=0.25;entryDx=0;entryDy=0;" edge="1" parent="1" source="3" target="18">
                    <mxGeometry width="50" height="50" relative="1" as="geometry">
                        <mxPoint x="540" y="440" as="sourcePoint"/>
                        <mxPoint x="590" y="390" as="targetPoint"/>
                    </mxGeometry>
                </mxCell>
                <mxCell id="20" value="GET /api/users" style="edgeLabel;html=1;align=center;verticalAlign=middle;resizable=0;points=[];" vertex="1" connectable="0" parent="19">
                    <mxGeometry x="-0.6003" y="3" relative="1" as="geometry">
                        <mxPoint as="offset"/>
                    </mxGeometry>
                </mxCell>
                <mxCell id="21" value="" style="endArrow=classic;html=1;exitX=0;exitY=0.5;exitDx=0;exitDy=0;entryX=1.004;entryY=0.34;entryDx=0;entryDy=0;entryPerimeter=0;" edge="1" parent="1" source="18" target="3">
                    <mxGeometry width="50" height="50" relative="1" as="geometry">
                        <mxPoint x="540" y="440" as="sourcePoint"/>
                        <mxPoint x="590" y="390" as="targetPoint"/>
                    </mxGeometry>
                </mxCell>
                <mxCell id="22" value="json with list of users" style="edgeLabel;html=1;align=center;verticalAlign=middle;resizable=0;points=[];" vertex="1" connectable="0" parent="21">
                    <mxGeometry x="0.4746" y="-2" relative="1" as="geometry">
                        <mxPoint as="offset"/>
                    </mxGeometry>
                </mxCell>
                <mxCell id="23" value="List actions / permissions" style="rounded=1;whiteSpace=wrap;html=1;" vertex="1" parent="1">
                    <mxGeometry x="650" y="320" width="120" height="60" as="geometry"/>
                </mxCell>
                <mxCell id="24" value="" style="endArrow=classic;html=1;exitX=1.004;exitY=0.458;exitDx=0;exitDy=0;exitPerimeter=0;entryX=0;entryY=0.5;entryDx=0;entryDy=0;" edge="1" parent="1" source="3" target="23">
                    <mxGeometry width="50" height="50" relative="1" as="geometry">
                        <mxPoint x="540" y="440" as="sourcePoint"/>
                        <mxPoint x="590" y="390" as="targetPoint"/>
                    </mxGeometry>
                </mxCell>
                <mxCell id="25" value="GET /api/permissions" style="edgeLabel;html=1;align=center;verticalAlign=middle;resizable=0;points=[];" vertex="1" connectable="0" parent="24">
                    <mxGeometry x="-0.3677" y="3" relative="1" as="geometry">
                        <mxPoint as="offset"/>
                    </mxGeometry>
                </mxCell>
                <mxCell id="26" value="" style="endArrow=classic;html=1;exitX=0;exitY=0.75;exitDx=0;exitDy=0;entryX=1.009;entryY=0.536;entryDx=0;entryDy=0;entryPerimeter=0;" edge="1" parent="1" source="23" target="3">
                    <mxGeometry width="50" height="50" relative="1" as="geometry">
                        <mxPoint x="540" y="440" as="sourcePoint"/>
                        <mxPoint x="590" y="390" as="targetPoint"/>
                    </mxGeometry>
                </mxCell>
                <mxCell id="27" value="json with list of actions/permissions&lt;br&gt;(ex:. show user list, show image list, show challanges)" style="edgeLabel;html=1;align=center;verticalAlign=middle;resizable=0;points=[];" vertex="1" connectable="0" parent="26">
                    <mxGeometry x="0.6312" y="-1" relative="1" as="geometry">
                        <mxPoint x="105.19" y="-7.82" as="offset"/>
                    </mxGeometry>
                </mxCell>
                <mxCell id="28" value="GetActions(images)" style="rounded=1;whiteSpace=wrap;html=1;" vertex="1" parent="1">
                    <mxGeometry x="780" y="440" width="120" height="60" as="geometry"/>
                </mxCell>
                <mxCell id="29" value="" style="endArrow=classic;html=1;exitX=1;exitY=0.667;exitDx=0;exitDy=0;exitPerimeter=0;entryX=0;entryY=0.25;entryDx=0;entryDy=0;" edge="1" parent="1" source="3" target="28">
                    <mxGeometry width="50" height="50" relative="1" as="geometry">
                        <mxPoint x="540" y="440" as="sourcePoint"/>
                        <mxPoint x="590" y="390" as="targetPoint"/>
                    </mxGeometry>
                </mxCell>
                <mxCell id="30" value="GET /api/actions/{images}" style="edgeLabel;html=1;align=center;verticalAlign=middle;resizable=0;points=[];" vertex="1" connectable="0" parent="29">
                    <mxGeometry x="-0.629" y="-1" relative="1" as="geometry">
                        <mxPoint x="22.29" y="-0.11" as="offset"/>
                    </mxGeometry>
                </mxCell>
                <mxCell id="31" value="" style="endArrow=classic;html=1;exitX=0;exitY=0.75;exitDx=0;exitDy=0;entryX=1;entryY=0.738;entryDx=0;entryDy=0;entryPerimeter=0;" edge="1" parent="1" source="28" target="3">
                    <mxGeometry width="50" height="50" relative="1" as="geometry">
                        <mxPoint x="540" y="440" as="sourcePoint"/>
                        <mxPoint x="590" y="390" as="targetPoint"/>
                    </mxGeometry>
                </mxCell>
                <mxCell id="32" value="json with list of items (in this case list of images)" style="edgeLabel;html=1;align=center;verticalAlign=middle;resizable=0;points=[];" vertex="1" connectable="0" parent="31">
                    <mxGeometry x="0.6159" y="3" relative="1" as="geometry">
                        <mxPoint x="69.15" y="-9.12" as="offset"/>
                    </mxGeometry>
                </mxCell>
                <mxCell id="33" value="GetAction(images, Id)" style="rounded=1;whiteSpace=wrap;html=1;" vertex="1" parent="1">
                    <mxGeometry x="745" y="560" width="155" height="60" as="geometry"/>
                </mxCell>
                <mxCell id="34" value="" style="endArrow=classic;html=1;exitX=1;exitY=0.855;exitDx=0;exitDy=0;exitPerimeter=0;entryX=0;entryY=0.25;entryDx=0;entryDy=0;" edge="1" parent="1" source="3" target="33">
                    <mxGeometry width="50" height="50" relative="1" as="geometry">
                        <mxPoint x="540" y="440" as="sourcePoint"/>
                        <mxPoint x="590" y="390" as="targetPoint"/>
                    </mxGeometry>
                </mxCell>
                <mxCell id="35" value="GET /api/actions/{images}/{imageId}" style="edgeLabel;html=1;align=center;verticalAlign=middle;resizable=0;points=[];" vertex="1" connectable="0" parent="34">
                    <mxGeometry x="-0.6841" y="-3" relative="1" as="geometry">
                        <mxPoint x="58.93" y="-9.25" as="offset"/>
                    </mxGeometry>
                </mxCell>
                <mxCell id="36" value="" style="endArrow=classic;html=1;exitX=0;exitY=0.75;exitDx=0;exitDy=0;entryX=1.013;entryY=0.936;entryDx=0;entryDy=0;entryPerimeter=0;" edge="1" parent="1" source="33" target="3">
                    <mxGeometry width="50" height="50" relative="1" as="geometry">
                        <mxPoint x="540" y="440" as="sourcePoint"/>
                        <mxPoint x="590" y="390" as="targetPoint"/>
                    </mxGeometry>
                </mxCell>
                <mxCell id="37" value="json with data of item (in this case an image)" style="edgeLabel;html=1;align=center;verticalAlign=middle;resizable=0;points=[];" vertex="1" connectable="0" parent="36">
                    <mxGeometry x="0.5612" y="2" relative="1" as="geometry">
                        <mxPoint x="63.18" y="-8.08" as="offset"/>
                    </mxGeometry>
                </mxCell>
                <mxCell id="38" value="DATABASE SQL (ex:. MsSQL, MySQL)" style="rounded=1;whiteSpace=wrap;html=1;" vertex="1" parent="1">
                    <mxGeometry x="1630" y="255" width="120" height="60" as="geometry"/>
                </mxCell>
                <mxCell id="39" value="DATABASE NoSQL (ex:. MongoDb, ElasticSearch)" style="rounded=1;whiteSpace=wrap;html=1;" vertex="1" parent="1">
                    <mxGeometry x="1730" y="345" width="120" height="60" as="geometry"/>
                </mxCell>
                <mxCell id="40" value="P2P" style="rounded=1;whiteSpace=wrap;html=1;" vertex="1" parent="1">
                    <mxGeometry x="1625" y="445" width="120" height="60" as="geometry"/>
                </mxCell>
                <mxCell id="41" value="Files" style="rounded=1;whiteSpace=wrap;html=1;" vertex="1" parent="1">
                    <mxGeometry x="1740" y="545" width="120" height="60" as="geometry"/>
                </mxCell>
                <mxCell id="50" value="" style="rounded=0;whiteSpace=wrap;html=1;" vertex="1" parent="1">
                    <mxGeometry x="1160" y="40" width="300" height="800" as="geometry"/>
                </mxCell>
                <mxCell id="51" value="&lt;h1&gt;Connectors&lt;/h1&gt;&lt;p&gt;Some connectors, with a common interface, for retrieve data from specific storages&lt;/p&gt;" style="text;html=1;strokeColor=none;fillColor=none;spacing=5;spacingTop=-20;whiteSpace=wrap;overflow=hidden;rounded=0;" vertex="1" parent="1">
                    <mxGeometry x="1170" y="50" width="280" height="90" as="geometry"/>
                </mxCell>
                <mxCell id="52" value="" style="endArrow=classic;html=1;exitX=1.008;exitY=0.383;exitDx=0;exitDy=0;exitPerimeter=0;entryX=-0.003;entryY=0.194;entryDx=0;entryDy=0;entryPerimeter=0;" edge="1" parent="1" source="13" target="50">
                    <mxGeometry width="50" height="50" relative="1" as="geometry">
                        <mxPoint x="960" y="370" as="sourcePoint"/>
                        <mxPoint x="1010" y="320" as="targetPoint"/>
                    </mxGeometry>
                </mxCell>
                <mxCell id="53" value="Verify auth" style="edgeLabel;html=1;align=center;verticalAlign=middle;resizable=0;points=[];" vertex="1" connectable="0" parent="52">
                    <mxGeometry x="0.5184" relative="1" as="geometry">
                        <mxPoint x="34.48" as="offset"/>
                    </mxGeometry>
                </mxCell>
                <mxCell id="54" value="" style="endArrow=classic;html=1;entryX=0.003;entryY=0.263;entryDx=0;entryDy=0;entryPerimeter=0;exitX=1.007;exitY=0.175;exitDx=0;exitDy=0;exitPerimeter=0;" edge="1" parent="1" source="50" target="7">
                    <mxGeometry width="50" height="50" relative="1" as="geometry">
                        <mxPoint x="960" y="370" as="sourcePoint"/>
                        <mxPoint x="1010" y="320" as="targetPoint"/>
                    </mxGeometry>
                </mxCell>
                <mxCell id="55" value="Queries" style="edgeLabel;html=1;align=center;verticalAlign=middle;resizable=0;points=[];" vertex="1" connectable="0" parent="54">
                    <mxGeometry x="-0.2916" relative="1" as="geometry">
                        <mxPoint as="offset"/>
                    </mxGeometry>
                </mxCell>
                <mxCell id="56" value="" style="endArrow=classic;html=1;exitX=-0.003;exitY=0.731;exitDx=0;exitDy=0;exitPerimeter=0;entryX=1;entryY=0.425;entryDx=0;entryDy=0;entryPerimeter=0;" edge="1" parent="1" source="7" target="50">
                    <mxGeometry width="50" height="50" relative="1" as="geometry">
                        <mxPoint x="960" y="370" as="sourcePoint"/>
                        <mxPoint x="1010" y="320" as="targetPoint"/>
                    </mxGeometry>
                </mxCell>
                <mxCell id="57" value="Return data" style="edgeLabel;html=1;align=center;verticalAlign=middle;resizable=0;points=[];" vertex="1" connectable="0" parent="56">
                    <mxGeometry x="0.3772" y="-1" relative="1" as="geometry">
                        <mxPoint as="offset"/>
                    </mxGeometry>
                </mxCell>
                <mxCell id="58" value="" style="endArrow=classic;html=1;exitX=0.007;exitY=0.239;exitDx=0;exitDy=0;exitPerimeter=0;entryX=1;entryY=0.75;entryDx=0;entryDy=0;" edge="1" parent="1" source="50" target="13">
                    <mxGeometry width="50" height="50" relative="1" as="geometry">
                        <mxPoint x="960" y="370" as="sourcePoint"/>
                        <mxPoint x="1010" y="320" as="targetPoint"/>
                    </mxGeometry>
                </mxCell>
                <mxCell id="59" value="return token or KO" style="edgeLabel;html=1;align=center;verticalAlign=middle;resizable=0;points=[];" vertex="1" connectable="0" parent="58">
                    <mxGeometry x="0.389" y="3" relative="1" as="geometry">
                        <mxPoint x="228.1" y="15.939999999999998" as="offset"/>
                    </mxGeometry>
                </mxCell>
                <mxCell id="60" value="" style="endArrow=classic;html=1;entryX=-0.017;entryY=0.316;entryDx=0;entryDy=0;entryPerimeter=0;exitX=1;exitY=0.25;exitDx=0;exitDy=0;" edge="1" parent="1" source="18" target="50">
                    <mxGeometry width="50" height="50" relative="1" as="geometry">
                        <mxPoint x="960" y="470" as="sourcePoint"/>
                        <mxPoint x="1010" y="420" as="targetPoint"/>
                    </mxGeometry>
                </mxCell>
                <mxCell id="61" value="" style="endArrow=classic;html=1;exitX=0.003;exitY=0.381;exitDx=0;exitDy=0;exitPerimeter=0;entryX=1;entryY=0.75;entryDx=0;entryDy=0;" edge="1" parent="1" source="50" target="18">
                    <mxGeometry width="50" height="50" relative="1" as="geometry">
                        <mxPoint x="960" y="470" as="sourcePoint"/>
                        <mxPoint x="1010" y="420" as="targetPoint"/>
                    </mxGeometry>
                </mxCell>
                <mxCell id="62" value="" style="endArrow=classic;html=1;entryX=0.003;entryY=0.459;entryDx=0;entryDy=0;entryPerimeter=0;exitX=1;exitY=0.25;exitDx=0;exitDy=0;" edge="1" parent="1" source="28" target="50">
                    <mxGeometry width="50" height="50" relative="1" as="geometry">
                        <mxPoint x="960" y="470" as="sourcePoint"/>
                        <mxPoint x="1010" y="420" as="targetPoint"/>
                    </mxGeometry>
                </mxCell>
                <mxCell id="63" value="" style="endArrow=classic;html=1;exitX=0.003;exitY=0.523;exitDx=0;exitDy=0;exitPerimeter=0;entryX=1;entryY=0.75;entryDx=0;entryDy=0;" edge="1" parent="1" source="50" target="28">
                    <mxGeometry width="50" height="50" relative="1" as="geometry">
                        <mxPoint x="960" y="470" as="sourcePoint"/>
                        <mxPoint x="1010" y="420" as="targetPoint"/>
                    </mxGeometry>
                </mxCell>
                <mxCell id="64" value="" style="endArrow=classic;html=1;entryX=-0.01;entryY=0.643;entryDx=0;entryDy=0;entryPerimeter=0;exitX=1;exitY=0.25;exitDx=0;exitDy=0;" edge="1" parent="1" source="33" target="50">
                    <mxGeometry width="50" height="50" relative="1" as="geometry">
                        <mxPoint x="960" y="470" as="sourcePoint"/>
                        <mxPoint x="1010" y="420" as="targetPoint"/>
                    </mxGeometry>
                </mxCell>
                <mxCell id="65" value="" style="endArrow=classic;html=1;exitX=-0.017;exitY=0.691;exitDx=0;exitDy=0;exitPerimeter=0;" edge="1" parent="1" source="50" target="33">
                    <mxGeometry width="50" height="50" relative="1" as="geometry">
                        <mxPoint x="960" y="470" as="sourcePoint"/>
                        <mxPoint x="1010" y="420" as="targetPoint"/>
                    </mxGeometry>
                </mxCell>
            </root>
        </mxGraphModel>
    </diagram>
</mxfile>